<?xml version="1.0" encoding="utf-8"?>
<!-- Generator: Adobe Illustrator 24.3.0, SVG Export Plug-In . SVG Version: 6.00 Build 0)  -->
<svg version="1.1" id="Capa_1" xmlns="http://www.w3.org/2000/svg" xmlns:xlink="http://www.w3.org/1999/xlink" x="0px" y="0px"
	 viewBox="0 0 300 32.51" style="enable-background:new 0 0 300 32.51;" xml:space="preserve">
<style type="text/css">
	.st0{fill:#FFFFFF;}
</style>
<g>
	<path class="st0" d="M0,32.51l0.09-0.43h8.47l-0.09,0.43H0z M1.06,28.4h8.47l-0.75,2.88H0.31L1.06,28.4z M2,24.78h8.47L9.8,27.42
		H1.33L2,24.78z M2.97,21.1h8.47l-0.62,2.45H2.35L2.97,21.1z M3.95,17.48h8.47l-0.09,0.43l0.31-0.43h10.15l-1.73,2.27H3.33
		L3.95,17.48z M4.92,13.8h8.47l-0.53,2.09H4.35L4.92,13.8z M5.85,10.18h8.51l-0.49,1.84H5.36L5.85,10.18z M29.44,7.54
		C29.2,7.83,29,8.03,28.82,8.16H6.39L6.83,6.5h23.41C29.94,6.91,29.68,7.26,29.44,7.54z M32.04,3.62c-0.13,0.25-0.27,0.49-0.42,0.74
		H7.4l0.4-1.47h24.65C32.31,3.13,32.17,3.37,32.04,3.62z M33.83,0c-0.03,0.08-0.06,0.16-0.09,0.25c-0.03,0.08-0.06,0.16-0.09,0.24
		H8.42L8.56,0H33.83z M15.39,13.8h10.2l-1.6,2.09H13.83L15.39,13.8z"/>
	<path class="st0" d="M27.62,32.08h19.73c-0.06,0.08-0.12,0.15-0.18,0.21s-0.12,0.13-0.18,0.21H27.53L27.62,32.08z M48.93,29.9
		c-0.31,0.47-0.63,0.93-0.95,1.38H27.85l0.75-2.88h21.28C49.56,28.93,49.24,29.43,48.93,29.9z M51.35,25.88
		c-0.27,0.45-0.56,0.96-0.89,1.53H28.87l0.67-2.64h22.44C51.82,25.07,51.61,25.44,51.35,25.88z M30.51,21.1h8.47l-0.62,2.45h-8.47
		L30.51,21.1z M31.48,17.48h8.47l-0.62,2.27h-8.47L31.48,17.48z M32.46,13.8h8.47l-0.58,2.09h-8.47L32.46,13.8z M33.39,10.18h8.47
		l-0.49,1.84H32.9L33.39,10.18z M34.36,6.5h8.47l-0.44,1.66h-8.47L34.36,6.5z M35.34,2.88h8.47l-0.4,1.47h-8.47L35.34,2.88z
		 M44.43,0.49h-8.47L36.09,0h8.47L44.43,0.49z"/>
	<path class="st0" d="M74.67,32.51h-22.3l0.09-0.43h22.61C74.95,32.24,74.82,32.39,74.67,32.51z M76.77,29.93
		c-0.37,0.49-0.72,0.94-1.04,1.35H52.67l0.75-2.88h24.39C77.49,28.93,77.14,29.44,76.77,29.93z M79.23,26.01
		c-0.21,0.45-0.34,0.72-0.4,0.8c-0.06,0.08-0.12,0.18-0.18,0.31c-0.06,0.12-0.12,0.23-0.18,0.31H53.7l0.67-2.64h25.41
		C79.62,25.15,79.44,25.56,79.23,26.01z M55.33,21.1h8.47l-0.62,2.45h-8.47L55.33,21.1z M56.31,17.48h8.47l-0.09,0.43L65,17.48
		h10.15l-1.73,2.27H55.69L56.31,17.48z M57.29,13.8h8.47l-0.53,2.09h-8.51L57.29,13.8z M58.22,10.18h8.51l-0.49,1.84h-8.51
		L58.22,10.18z M81.81,7.54c-0.24,0.29-0.44,0.49-0.62,0.61H58.75l0.44-1.66H82.6C82.31,6.91,82.04,7.26,81.81,7.54z M84.4,3.62
		c-0.13,0.25-0.27,0.49-0.42,0.74H59.77l0.4-1.47h24.65C84.67,3.13,84.53,3.37,84.4,3.62z M86.2,0c-0.03,0.08-0.06,0.16-0.09,0.25
		c-0.03,0.08-0.06,0.16-0.09,0.24H60.79L60.92,0H86.2z M67.75,13.8h10.2l-1.6,2.09H66.2L67.75,13.8z"/>
	<path class="st0" d="M86.15,6.5h23.01c-0.3,0.41-0.56,0.76-0.8,1.04c-0.24,0.29-0.44,0.49-0.62,0.61H85.31
		C85.4,7.87,85.68,7.32,86.15,6.5z M87.39,32.08h8.51l-0.09,0.43h-8.51L87.39,32.08z M88.32,2.88h23.06
		c-0.15,0.25-0.29,0.49-0.42,0.74c-0.13,0.25-0.27,0.49-0.42,0.74H87.39L88.32,2.88z M88.37,28.4h8.51l-0.75,2.88h-8.51L88.37,28.4z
		 M89.3,24.78h8.51l-0.67,2.64h-8.51L89.3,24.78z M90.28,21.1h8.51l-0.62,2.45h-8.51L90.28,21.1z M90.3,0.25
		c0.07-0.08,0.16-0.16,0.24-0.25h22.21c-0.03,0.08-0.06,0.16-0.09,0.25c-0.03,0.08-0.06,0.16-0.09,0.24H90.05
		C90.14,0.41,90.22,0.33,90.3,0.25z M91.25,17.48h8.51l-0.62,2.27h-8.51L91.25,17.48z M92.23,13.8h8.51l-0.58,2.09h-8.51L92.23,13.8
		z M93.16,10.18h8.51l-0.49,1.84h-8.51L93.16,10.18z"/>
	<path class="st0" d="M128.76,32.51h-22.3l0.09-0.43h22.61C129.04,32.24,128.91,32.39,128.76,32.51z M130.87,29.93
		c-0.37,0.49-0.72,0.94-1.04,1.35h-23.06l0.75-2.88h24.39C131.58,28.93,131.24,29.44,130.87,29.93z M133.33,26.01
		c-0.21,0.45-0.34,0.72-0.4,0.8c-0.06,0.08-0.12,0.18-0.18,0.31c-0.06,0.12-0.12,0.23-0.18,0.31h-24.79l0.67-2.64h25.41
		C133.71,25.15,133.54,25.56,133.33,26.01z M109.43,21.1h8.47l-0.62,2.45h-8.47L109.43,21.1z M110.4,17.48h8.47l-0.09,0.43
		l0.31-0.43h10.15l-1.73,2.27h-17.74L110.4,17.48z M111.38,13.8h8.47l-0.53,2.09h-8.51L111.38,13.8z M112.31,10.18h8.51l-0.49,1.84
		h-8.51L112.31,10.18z M135.9,7.54c-0.24,0.29-0.44,0.49-0.62,0.61h-22.44l0.44-1.66h23.41C136.4,6.91,136.14,7.26,135.9,7.54z
		 M138.49,3.62c-0.13,0.25-0.27,0.49-0.42,0.74h-24.21l0.4-1.47h24.65C138.77,3.13,138.63,3.37,138.49,3.62z M140.29,0
		c-0.03,0.08-0.06,0.16-0.09,0.25c-0.03,0.08-0.06,0.16-0.09,0.24h-25.23L115.02,0H140.29z M121.84,13.8h10.2l-1.6,2.09h-10.15
		L121.84,13.8z"/>
	<path class="st0" d="M134.84,32.08h23.94c-0.44,0.29-0.95,0.43-1.51,0.43h-22.61C134.72,32.35,134.78,32.2,134.84,32.08z
		 M135.88,29.93c0.25-0.49,0.52-1,0.82-1.53h25.18c-0.59,1.19-1.29,2.15-2.08,2.88h-24.61C135.4,30.87,135.63,30.42,135.88,29.93z
		 M138.12,25.88c0.27-0.45,0.5-0.82,0.71-1.1h24.39c-0.12,0.45-0.25,0.89-0.4,1.32c-0.15,0.43-0.31,0.87-0.49,1.32h-25.1
		C137.56,26.85,137.85,26.34,138.12,25.88z M149.25,12.02h-9.27c-0.03-0.2-0.04-0.39-0.04-0.55c0-0.2,0-0.41,0-0.61v-0.67h8.51
		c-0.03,0.16-0.04,0.35-0.04,0.55v0.31c0,0.04,0.06,0.13,0.18,0.28c0.12,0.14,0.21,0.26,0.27,0.34
		C148.94,11.78,149.07,11.9,149.25,12.02z M161.77,14.78c0.22,0.33,0.41,0.7,0.55,1.1h-21.41c-0.27-0.69-0.49-1.39-0.67-2.09h20.84
		C161.32,14.13,161.55,14.46,161.77,14.78z M164.37,8.16h-24.03c0.09-0.29,0.17-0.56,0.24-0.83c0.07-0.27,0.17-0.54,0.29-0.83h24.7
		L164.37,8.16z M163.17,18.62c0.06,0.39,0.12,0.77,0.18,1.13h-19.51c-0.8-0.45-1.51-1.21-2.13-2.27h21.19
		C163.02,17.85,163.11,18.23,163.17,18.62z M167.47,3.62c-0.15,0.25-0.3,0.49-0.44,0.74h-25.1c0.15-0.25,0.3-0.49,0.44-0.74
		c0.15-0.25,0.3-0.49,0.44-0.74h25.1C167.76,3.13,167.62,3.37,167.47,3.62z M169.35,0.25c-0.01,0.08-0.05,0.16-0.11,0.24h-23.99
		c0.56-0.33,1.09-0.49,1.6-0.49h22.61C169.41,0.08,169.37,0.16,169.35,0.25z M155.14,21.1h8.34c0.03,0.16,0.04,0.41,0.04,0.74v0.37
		c0,0.21-0.01,0.43-0.02,0.67c-0.01,0.25-0.04,0.47-0.07,0.67h-8.29c0.06-0.2,0.09-0.53,0.09-0.98v-0.74
		C155.23,21.67,155.2,21.43,155.14,21.1z"/>
	<path class="st0" d="M175.76,32.08h17.87c-0.47,0.16-0.97,0.28-1.49,0.34c-0.52,0.06-1.07,0.09-1.66,0.09h-14.9
		C175.64,32.35,175.7,32.2,175.76,32.08z M176.8,29.84c0.22-0.47,0.45-0.95,0.69-1.44h21.02c-0.89,1.27-1.88,2.23-2.97,2.88h-19.42
		C176.35,30.79,176.58,30.31,176.8,29.84z M178.78,26.1c0.27-0.43,0.56-0.87,0.89-1.32h20.71c-0.41,1.02-0.83,1.9-1.24,2.64h-21.11
		C178.26,26.97,178.51,26.53,178.78,26.1z M191.79,22.48c0.34-0.43,0.66-0.89,0.95-1.38h8.91c-0.15,0.45-0.29,0.88-0.42,1.29
		c-0.13,0.41-0.27,0.8-0.42,1.17H190.7C191.09,23.27,191.45,22.91,191.79,22.48z M194.07,18.22l0.18-0.74h8.42
		c-0.12,0.41-0.23,0.8-0.33,1.17c-0.1,0.37-0.2,0.74-0.29,1.1h-8.65C193.7,19.14,193.92,18.63,194.07,18.22z M195.23,13.8h8.38
		l-0.53,2.09h-8.38L195.23,13.8z M196.2,10.18h8.38l-0.49,1.84h-8.38L196.2,10.18z M197.13,6.5h8.43l-0.44,1.66h-8.38L197.13,6.5z
		 M198.11,2.88h8.43l-0.4,1.47h-8.43L198.11,2.88z M198.86,0h8.42l-0.13,0.49h-8.43L198.86,0z"/>
	<path class="st0" d="M204.67,22.27c0-0.33,0.03-0.72,0.09-1.17h9.05c0.21,1.1,0.6,1.92,1.2,2.45h-10.33v-0.25
		C204.67,22.94,204.67,22.59,204.67,22.27z M204.87,26.19c-0.08-0.45-0.13-0.92-0.16-1.41h25.72c-0.44,0.98-0.9,1.86-1.38,2.64
		h-23.9C205.04,27.05,204.94,26.64,204.87,26.19z M205.14,18.65c0.07-0.37,0.15-0.76,0.24-1.17h8.56c-0.03,0.08-0.04,0.13-0.02,0.15
		c0.02,0.02,0.02,0.05,0.02,0.09c-0.15,0.9-0.22,1.55-0.22,1.96v0.06h-8.78C204.99,19.38,205.06,19.02,205.14,18.65z M205.51,28.4
		h22.88c-0.92,1.27-1.91,2.23-2.97,2.88h-17.12C207.01,30.59,206.07,29.63,205.51,28.4z M206,14.87c0.06-0.35,0.13-0.71,0.22-1.07
		h8.51c-0.09,0.45-0.18,0.85-0.27,1.2c-0.09,0.35-0.16,0.64-0.22,0.89h-8.47C205.87,15.56,205.94,15.22,206,14.87z M215.38,11.13
		c-0.07,0.31-0.14,0.6-0.2,0.89h-8.51l0.49-1.84h8.47C215.53,10.51,215.45,10.83,215.38,11.13z M216.11,8.16h-8.47l0.44-1.66h8.42
		C216.36,7.12,216.23,7.67,216.11,8.16z M209.02,2.88h8.38c-0.06,0.25-0.12,0.5-0.18,0.77c-0.06,0.27-0.12,0.5-0.18,0.71h-8.42
		L209.02,2.88z M218.08,0.25c-0.01,0.08-0.04,0.16-0.07,0.24h-8.38L209.77,0h8.38C218.12,0.08,218.1,0.16,218.08,0.25z
		 M212.94,32.42c-0.78-0.06-1.52-0.17-2.2-0.34h12.95c-0.44,0.16-0.92,0.28-1.42,0.34c-0.5,0.06-1.02,0.09-1.55,0.09h-5.19
		C214.59,32.51,213.72,32.48,212.94,32.42z M231.36,22.39c-0.15,0.41-0.3,0.8-0.44,1.17h-10.24c0.44-0.29,0.85-0.64,1.22-1.07
		c0.37-0.43,0.7-0.89,1-1.38h8.91C231.66,21.55,231.51,21.98,231.36,22.39z M232.56,18.65c-0.12,0.37-0.24,0.74-0.36,1.1h-8.56
		c0.3-0.61,0.52-1.12,0.67-1.53l0.18-0.74h8.42C232.8,17.89,232.68,18.28,232.56,18.65z M233.42,15.52
		c-0.01,0.12-0.05,0.25-0.11,0.37h-8.38l0.53-2.09h8.42l-0.36,1.35C233.48,15.27,233.44,15.4,233.42,15.52z M226.44,10.18h8.38
		l-0.49,1.84h-8.38L226.44,10.18z M227.37,6.5h8.42l-0.44,1.66h-8.38L227.37,6.5z M228.35,2.88h8.42l-0.4,1.47h-8.42L228.35,2.88z
		 M237.39,0.49h-8.42L229.1,0h8.42L237.39,0.49z"/>
	<path class="st0" d="M250.05,32.36c-0.07,0.06-0.14,0.11-0.2,0.15H231.1c0.06-0.41,0.09-0.55,0.09-0.43h19.11
		C250.21,32.2,250.13,32.3,250.05,32.36z M251.76,29.93c-0.3,0.49-0.59,0.94-0.89,1.35h-19.33l1.64-2.88h19.46
		C252.35,28.93,252.05,29.44,251.76,29.93z M253.18,27.42h-19.46l1.51-2.64H262l0.31,2.64h-8.02l-0.22-1.84
		C253.95,25.95,253.65,26.56,253.18,27.42z M237.3,21.1h9.13l-1.33,2.45h-9.22L237.3,21.1z M239.34,17.48h9.05l-1.2,2.27h-9.13
		L239.34,17.48z M241.43,13.8h8.96l-1.11,2.09h-9.05L241.43,13.8z M243.47,10.18h8.87l-0.98,1.84h-8.96L243.47,10.18z M245.55,6.5
		h14.46l0.18,1.66h-15.56L245.55,6.5z M247.15,3.68c0.06-0.25,0.19-0.51,0.4-0.8h11.75c0.06,0.25,0.11,0.49,0.16,0.74
		c0.04,0.25,0.1,0.49,0.15,0.74h-12.86L247.15,3.68z M250.25,0h7.45c0.24,0,0.47,0.16,0.71,0.49h-9C249.73,0.16,250.01,0,250.25,0z
		 M252.51,10.18h7.89l0.18,1.84h-7.85L252.51,10.18z M252.91,13.8h7.89l0.22,2.09h-7.89L252.91,13.8z M253.31,17.48h7.89l0.22,2.27
		h-7.85L253.31,17.48z M253.71,21.1h7.89l0.27,2.45h-7.89L253.71,21.1z M254.42,28.4h7.98l0.35,2.88h-7.94L254.42,28.4z M255,32.51
		l-0.04-0.43h7.89l0.04,0.43H255z"/>
	<path class="st0" d="M265.02,32.08h8.51l-0.09,0.43h-8.51L265.02,32.08z M265.99,28.4h8.51l-0.75,2.88h-8.51L265.99,28.4z
		 M266.92,24.78h8.51l-0.67,2.64h-8.51L266.92,24.78z M267.9,21.1h8.51l-0.62,2.45h-8.51L267.9,21.1z M268.87,17.48h8.51l-0.62,2.27
		h-8.51L268.87,17.48z M277.79,15.89h-8.51l0.58-2.09h16.27l0.27,2.09h-7.94l-0.22-1.66L277.79,15.89z M270.78,10.18h14.81
		l0.27,1.84h-15.56L270.78,10.18z M271.76,6.5h13.35l0.22,1.66h-14.01L271.76,6.5z M272.73,2.88h11.88l0.18,1.47h-12.46L272.73,2.88
		z M273.48,0h10.73l0.04,0.49h-10.91L273.48,0z M286.74,18.28l0.22-0.8h8.42l-0.62,2.27h-15.79l-0.31-2.27h7.94L286.74,18.28z
		 M279.16,21.1h15.25l-0.62,2.45h-14.32L279.16,21.1z M279.65,24.78h13.79l-0.67,2.64H280L279.65,24.78z M280.14,28.4h12.37
		l-0.75,2.88h-11.22L280.14,28.4z M280.71,32.51l-0.04-0.43h10.86l-0.09,0.43H280.71z M287.94,13.8h8.42l-0.58,2.09h-8.42
		L287.94,13.8z M288.87,10.18h8.42l-0.49,1.84h-8.42L288.87,10.18z M289.85,6.5h8.42l-0.44,1.66h-8.42L289.85,6.5z M290.82,2.88
		h8.42l-0.4,1.47h-8.42L290.82,2.88z M291.58,0H300l-0.13,0.49h-8.42L291.58,0z"/>
</g>
</svg>
